HIERARCHY
ROOT hip
{
  OFFSET 0 0 0
  CHANNELS 6 Xposition Yposition Zposition Zrotation Yrotation Xrotation
  JOINT abdomen
  {
    OFFSET 0 20.6881 -0.73152
    CHANNELS 3 Zrotation Xrotation Yrotation
    JOINT chest
    {
      OFFSET 0 11.7043 -0.48768
      CHANNELS 3 Zrotation Xrotation Yrotation
      JOINT neck
      {
        OFFSET 0 22.1894 -2.19456
        CHANNELS 3 Zrotation Xrotation Yrotation
        JOINT head
        {
          OFFSET -0.24384 7.07133 1.2192
          CHANNELS 3 Zrotation Xrotation Yrotation
          JOINT leftEye
          {
            OFFSET 4.14528 8.04674 8.04672
            CHANNELS 3 Zrotation Xrotation Yrotation
            End Site
            {
              OFFSET 1 0 0
            }
          }
          JOINT rightEye
          {
            OFFSET -3.6576 8.04674 8.04672
            CHANNELS 3 Zrotation Xrotation Yrotation
            End Site
            {
              OFFSET 1 0 0
            }
          }
        }
      }
      JOINT rCollar
      {
        OFFSET -2.68224 19.2634 -4.8768
        CHANNELS 3 Zrotation Xrotation Yrotation
        JOINT rShldr
        {
          OFFSET -8.77824 -1.95073 1.46304
          CHANNELS 3 Zrotation Xrotation Yrotation
          JOINT rForeArm
          {
            OFFSET -28.1742 -1.7115 0.48768
            CHANNELS 3 Zrotation Xrotation Yrotation
            JOINT rHand
            {
              OFFSET -22.5879 0.773209 7.07136
              CHANNELS 3 Zrotation Xrotation Yrotation
              JOINT rThumb1
              {
                OFFSET -1.2192 -0.487915 3.41376
                CHANNELS 3 Zrotation Xrotation Yrotation
                JOINT rThumb2
                {
                  OFFSET -3.37035 -0.52449 3.41376
                  CHANNELS 3 Zrotation Xrotation Yrotation
                  End Site
                  {
                    OFFSET -1.78271 -1.18214 1.43049
                  }
                }
              }
              JOINT rIndex1
              {
                OFFSET -7.75947 0.938293 5.60832
                CHANNELS 3 Zrotation Xrotation Yrotation
                JOINT rIndex2
                {
                  OFFSET -2.54057 -0.884171 1.56538
                  CHANNELS 3 Zrotation Xrotation Yrotation
                  End Site
                  {
                    OFFSET -1.62519 -0.234802 1.16502
                  }
                }
              }
              JOINT rMid1
              {
                OFFSET -8.24714 1.18213 3.41376
                CHANNELS 3 Zrotation Xrotation Yrotation
                JOINT rMid2
                {
                  OFFSET -3.10165 -0.590103 1.0647
                  CHANNELS 3 Zrotation Xrotation Yrotation
                  End Site
                  {
                    OFFSET -2.48547 -0.328903 0.83742
                  }
                }
              }
              JOINT rRing1
              {
                OFFSET -8.82822 0.546677 1.51678
                CHANNELS 3 Zrotation Xrotation Yrotation
                JOINT rRing2
                {
                  OFFSET -2.60934 -0.819778 -0.0198488
                  CHANNELS 3 Zrotation Xrotation Yrotation
                  End Site
                  {
                    OFFSET -2.33842 -0.294052 0.168128
                  }
                }
              }
              JOINT rPinky1
              {
                OFFSET -8.27202 -0.0477905 -0.4584
                CHANNELS 3 Zrotation Xrotation Yrotation
                JOINT rPinky2
                {
                  OFFSET -1.82734 -0.647385 -0.700984
                  CHANNELS 3 Zrotation Xrotation Yrotation
                  End Site
                  {
                    OFFSET -1.69225 -0.51767 -0.607171
                  }
                }
              }
            }
          }
        }
      }
      JOINT lCollar
      {
        OFFSET 2.68224 19.2634 -4.8768
        CHANNELS 3 Zrotation Xrotation Yrotation
        JOINT lShldr
        {
          OFFSET 8.77824 -1.95073 1.46304
          CHANNELS 3 Zrotation Xrotation Yrotation
          JOINT lForeArm
          {
            OFFSET 28.1742 -1.7115 0.48768
            CHANNELS 3 Zrotation Xrotation Yrotation
            JOINT lHand
            {
              OFFSET 22.5879 0.773209 7.07136
              CHANNELS 3 Zrotation Xrotation Yrotation
              JOINT lThumb1
              {
                OFFSET 1.2192 -0.487915 3.41376
                CHANNELS 3 Zrotation Xrotation Yrotation
                JOINT lThumb2
                {
                  OFFSET 3.37035 -0.52449 3.41376
                  CHANNELS 3 Zrotation Xrotation Yrotation
                  End Site
                  {
                    OFFSET 1.78271 -1.18214 1.43049
                  }
                }
              }
              JOINT lIndex1
              {
                OFFSET 7.75947 0.938293 5.60832
                CHANNELS 3 Zrotation Xrotation Yrotation
                JOINT lIndex2
                {
                  OFFSET 2.54057 -0.884171 1.56538
                  CHANNELS 3 Zrotation Xrotation Yrotation
                  End Site
                  {
                    OFFSET 1.62519 -0.234802 1.16502
                  }
                }
              }
              JOINT lMid1
              {
                OFFSET 8.24714 1.18213 3.41376
                CHANNELS 3 Zrotation Xrotation Yrotation
                JOINT lMid2
                {
                  OFFSET 3.10165 -0.590103 1.0647
                  CHANNELS 3 Zrotation Xrotation Yrotation
                  End Site
                  {
                    OFFSET 2.48547 -0.328903 0.83742
                  }
                }
              }
              JOINT lRing1
              {
                OFFSET 8.82822 0.546677 1.51678
                CHANNELS 3 Zrotation Xrotation Yrotation
                JOINT lRing2
                {
                  OFFSET 2.60934 -0.819778 -0.0198488
                  CHANNELS 3 Zrotation Xrotation Yrotation
                  End Site
                  {
                    OFFSET 2.33842 -0.294052 0.168128
                  }
                }
              }
              JOINT lPinky1
              {
                OFFSET 8.27202 -0.0477905 -0.4584
                CHANNELS 3 Zrotation Xrotation Yrotation
                JOINT lPinky2
                {
                  OFFSET 1.82734 -0.647385 -0.700984
                  CHANNELS 3 Zrotation Xrotation Yrotation
                  End Site
                  {
                    OFFSET 1.69225 -0.51767 -0.607171
                  }
                }
              }
            }
          }
        }
      }
    }
  }
  JOINT rButtock
  {
    OFFSET -8.77824 4.35084 1.2192
    CHANNELS 3 Zrotation Xrotation Yrotation
    JOINT rThigh
    {
      OFFSET 0 -1.70687 -2.19456
      CHANNELS 3 Zrotation Xrotation Yrotation
      JOINT rShin
      {
        OFFSET 0 -36.8199 0.73152
        CHANNELS 3 Zrotation Xrotation Yrotation
        JOINT rFoot
        {
          OFFSET 0.73152 -45.1104 -5.12064
          CHANNELS 3 Zrotation Xrotation Yrotation
          End Site
          {
            OFFSET -1.1221 -3.69964 12.103
          }
        }
      }
    }
  }
  JOINT lButtock
  {
    OFFSET 8.77824 4.35084 1.2192
    CHANNELS 3 Zrotation Xrotation Yrotation
    JOINT lThigh
    {
      OFFSET 0 -1.70687 -2.19456
      CHANNELS 3 Zrotation Xrotation Yrotation
      JOINT lShin
      {
        OFFSET 0 -36.8199 0.73152
        CHANNELS 3 Zrotation Xrotation Yrotation
        JOINT lFoot
        {
          OFFSET -0.73152 -45.1104 -5.12064
          CHANNELS 3 Zrotation Xrotation Yrotation
          End Site
          {
            OFFSET 1.1221 -3.69964 12.103
          }
        }
      }
    }
  }
}
MOTION
Frames:	6
Frame Time:	0.03333
-3.4757000000000002 67.2749 18.7545 175.87709 63.677385 -178.661271 -11.518924 6.428327 -180.0 -6.35572 4.578893 164.091365 3.203594 40.173652 161.346002 -13.540402 41.222888 149.717769 6.2699 -0.427384 -7.791277 -20.096616 -1.360268 7.665514 -147.874581 21.854745 154.002851 -109.058129 49.306095 72.742768 -128.574403 10.279168 -176.525951 12.066631 -32.195552 5.188583 -78.347387 39.058799 42.051664 23.781886 -24.809058 24.984091 -162.170626 -40.01188 127.187558 -61.546421 56.247707 47.611297 9.258607 -24.649626 1.078109 -163.948505 -2.949622 147.081582 -3.448329 -3.657858 0.698303 20.891949 48.265215 0.442025 -22.339491 -37.410687 -28.071355 -1.682864 -14.103433 0.618113 153.099248 18.019187 -157.434453 -38.008468 -73.305716 -94.564393 -127.874434 -0.136369 -162.438067 172.846898 50.758153 -146.672765 172.821369 -9.14788 -88.317429 91.695361 12.993461 -42.182969 -158.070377 -69.212149 -105.194668 167.540782 -54.732447 -118.877538 42.084467 51.453811 -35.702905 41.180852 58.339827 -37.313901 6.795228 0.323109 1.068952 149.487689 -16.03195 -171.949852 27.967743 -36.4915 26.895279 134.360336 -15.595567 139.511192 -9.833191 -2.918251 -9.247956 -9.643396 -63.397749 -0.0 61.112222 74.586894 115.240288 70.897019 28.307409 -170.082708 -162.138062 77.772304 -18.249367 -146.481204 84.462393 146.3577 -7.877955 -47.539396 -51.076956 -52.345501 56.694744 -68.071694
-3.5559 67.3002 19.4381 176.166155 63.849654 -178.382437 -9.956619 10.647288 -42.82354 9.462643 -3.237429 27.417678 -13.781732 33.122815 -87.396935 36.975762 12.691961 34.195598 2.689052 -0.150556 -6.407969 -21.883373 -1.695733 8.755008 5.050332 -26.845653 -4.588729 60.569701 17.098764 -24.144425 -179.088564 -10.004702 105.007164 167.215531 -24.96081 142.651818 -7.306424 4.748434 0.730728 -118.086575 -26.884592 114.03494 -0.451301 -0.029204 -2.906884 -156.843469 -8.096308 110.232475 -161.834173 -10.071115 140.441615 92.492233 -75.825812 63.865619 -40.786318 65.502967 55.515855 -150.245374 -77.582783 -178.001805 -150.20827 39.857883 -142.095199 -146.813182 11.050197 -133.498403 150.0422 29.068767 -153.556804 60.036527 -2.92076 -29.76453 -89.599199 35.77275 108.109708 175.60508 44.27569 -147.462231 2.265697 1.061822 -2.039659 43.701757 21.070653 -34.766834 150.195886 -5.419952 -118.272801 -70.789018 -77.041171 -25.530315 179.315332 -50.214166 -139.245674 154.616758 23.014418 -136.544008 75.891937 71.546388 -87.789744 61.152642 -87.445601 80.212675 19.212236 -28.32822 18.223263 140.242445 21.00576 148.672127 -4.824008 -4.273063 -4.487732 -22.431677 -63.826257 -180.0 -54.125683 -72.469346 28.361852 162.119205 21.7942 -92.822998 173.736873 78.266054 -0.0 -111.821847 79.484152 -170.376014 -35.476413 -14.56055 47.402189 107.14647 78.629131 -2.428166
-3.6558 67.2717 19.9427 175.542004 65.26487 -178.928442 -9.333616 7.822962 -114.054173 4.178234 6.334344 98.862315 -12.01 27.604084 -53.805467 32.516136 -7.501585 5.560337 -1.537596 0.037425 -2.788442 -23.65318 -0.729939 3.484911 -13.051463 42.760134 15.499615 77.928733 -23.278301 35.639854 175.402826 -10.085769 103.756069 168.987919 -19.467793 143.742273 -168.803809 -3.422064 89.601941 -137.943355 15.233978 58.043154 -165.091397 -42.942599 125.214313 164.974732 -61.242582 103.102537 -138.661566 33.830687 126.385504 12.696834 -24.671163 -0.329818 0.780391 -14.734076 -0.795212 -142.782667 -57.17561 -166.209734 -162.75722 59.05525 -139.444541 12.729422 31.571061 -4.308904 160.513021 -47.792653 -170.974408 -153.240084 -8.864039 139.760399 9.282821 -36.120264 -29.097454 2.027711 25.077671 0.101961 -170.680793 -25.641169 -85.620675 -2.843322 -54.612261 4.1801 94.048757 41.807463 -74.165375 167.607702 3.279412 -110.444147 17.022279 34.966056 -16.065352 2.813296 17.588005 -1.604052 3.900592 -0.665683 -3.962015 145.473143 -47.66095 172.05972 136.072554 -14.375246 128.584933 138.700365 -10.459422 121.14226 175.469439 80.929253 3.477897 166.078333 10.450518 -126.195218 -74.589806 -45.555094 5.416475 53.490995 -56.760234 153.651603 124.388257 73.75095 36.83101 -92.544117 71.728611 2.856306 46.326173 4.598977 44.548441 -51.891672 -82.566 -125.113102
-3.7245 67.2551 20.3228 175.301149 65.943416 -179.131137 -9.004742 8.459842 -97.880145 6.78838 4.862338 83.627167 9.203853 27.522795 70.71416 -32.244906 -1.306561 -127.228968 -4.343541 0.042048 -1.108737 -23.339976 -0.483701 2.341571 -156.685682 -14.889341 165.230873 -46.3321 14.544473 3.025665 162.215999 35.462376 -130.144084 -18.020027 46.964552 6.567909 81.145795 -50.111029 33.82308 -152.406027 -30.390839 141.637315 -8.500535 10.847759 2.808691 91.717884 -60.673171 37.413455 1.292225 -1.624284 1.680469 -179.374544 -48.795277 141.083263 -69.568048 69.309359 89.352588 -127.787863 81.595696 144.306484 -14.693562 -22.714313 -20.264239 3.08901 71.43331 38.003973 84.211202 68.058461 -85.637876 91.684903 9.992097 -88.496535 -13.409109 -8.170313 69.991555 -162.568434 -23.12627 -141.521546 172.193419 -12.200729 -89.161911 174.763427 -27.158635 -102.127414 -175.140247 -56.974069 -116.565066 5.855681 46.742612 1.144274 -2.546445 0.342639 -3.725566 5.134138 19.584722 -0.442819 1.434469 -2.340853 -5.734951 -2.314623 -44.024081 19.990914 133.574548 -18.704461 126.740696 178.239619 48.732624 128.200616 -164.734265 79.44204 -14.207058 162.49025 9.83129 -74.490373 -69.891394 10.306648 101.469838 167.781324 -33.253334 10.687383 -19.933544 -0.898952 -9.605594 18.183136 12.443622 104.835444 35.553078 -3.757466 -100.933224 -139.240912 -52.216138 -56.87072
-3.7613 67.3924 20.6462 175.060585 66.060412 -179.38426 -13.874856 9.000696 83.240955 -6.957944 -9.605836 -97.014747 8.160598 26.73532 61.205864 -30.093647 -7.496352 -119.935381 -4.970893 0.08592 -1.97924 -19.93106 -0.475859 2.707767 0.803993 -63.269955 -16.269165 123.369415 50.467585 -93.03188 76.937419 -38.149745 84.836923 -87.704667 74.392977 69.367185 -1.257794 0.129705 -0.382612 -79.173213 22.635017 81.725114 -174.301878 -52.311202 122.043121 -157.148898 -3.110696 117.708432 -0.665286 2.735523 1.516871 6.163957 -5.69825 -0.940391 -68.401759 -75.324291 -87.489725 6.735596 12.640965 -0.360187 -9.702907 -13.314796 -14.471044 -17.42705 79.316549 63.365661 153.928442 13.314903 -156.90636 -11.911782 -75.986966 -68.665407 -125.934047 4.946729 -166.965152 169.094451 52.143695 -142.757682 -1.102776 3.517584 -0.974061 -4.13541 -19.333156 -0.758577 53.795652 39.316755 -39.618693 -179.837248 -20.490291 -105.08657 120.146691 45.774744 -111.325873 3.625812 32.874398 -7.620445 44.075973 63.052796 -60.249807 -16.271399 27.39418 1.261009 145.811552 8.704413 139.116861 -165.764935 70.017582 124.957094 -131.484786 73.751314 -39.284401 150.119757 5.399628 80.698744 74.977863 13.563801 2.797174 -6.55727 -62.106256 -95.099251 -134.755871 72.109242 -39.066373 137.892243 84.761172 -42.877831 -39.485845 16.244786 159.372387 -77.028757 13.90353 -28.959182
-3.8357 67.5354 20.937900000000003 174.820974 65.810166 -179.581849 -11.647994 10.856666 1.740581 6.178701 -10.03151 -15.018873 -13.178357 34.007696 -79.604166 38.996087 8.423049 25.308516 -3.423727 0.135049 -4.516389 -16.059266 -0.459588 3.257051 -157.999517 -30.603034 167.544178 140.821801 20.960029 -172.566477 177.868945 0.667849 105.437279 169.640108 -20.486897 144.551494 -168.694614 -6.796759 91.138144 -34.796894 -31.27376 2.750486 9.072218 -22.47262 -7.431244 -62.367241 54.216473 48.879738 -89.261046 60.428938 81.470308 4.957514 0.47228 0.706122 -83.22273 -73.447906 -102.236078 -155.735016 -27.045727 -179.999528 -46.956914 -41.169984 -45.418078 -12.553056 -42.529829 -28.891186 1.857784 -1.272224 -0.709743 95.015538 1.45958 -172.761715 -177.232655 -9.311064 144.174323 9.808119 41.214343 -1.955585 168.843192 -13.538587 -89.644774 -2.852129 -48.301487 -0.219189 -89.280927 -74.893488 -42.406379 161.042677 -40.220582 -116.529437 81.48773 56.308527 -75.696548 31.389171 62.377948 -30.261654 -0.054109 -14.97178 -0.431716 -12.006496 71.101718 -1.29625 153.34636 38.256393 146.23683 -2.448131 0.723036 5.354808 178.527455 77.135052 -0.0 163.685666 8.159448 64.130937 81.8402 28.344232 105.385352 -106.185543 19.406267 -175.663702 -1.546104 -1.512791 1.947221 3.338852 11.571892 -16.216091 -21.581737 37.928229 -84.080732 85.009554 -6.930907 146.380566
